# xmcd CD database file
#
# Track frame offsets:
#	150
#	17505
#	33095
#	48125
#	64305
#	73677
#	89637
#	104487
#	117752
#	136097
#	150197
#	171517
#
# Disc length: 2527 seconds
#
# Revision: 0
# Processed by: cddbd v1.5PL3 Copyright (c) Steve Scherf et al.
# Submitted via: CDex 1.50beta8
#
DISCID=9609dd0c
DTITLE=遊星ミンツ - 地転ノ休日
DYEAR=1991
DGENRE=JPop
TTITLE0=春のうた
TTITLE1=放課後は踊る
TTITLE2=空をかかえて
TTITLE3=桃の遠足
TTITLE4=チチとシリ
TTITLE5=大宇宙博覧会
TTITLE6=らふれしあ
TTITLE7=南国ペンギンの歌
TTITLE8=旗の日
TTITLE9=人さらいの唄
TTITLE10=地転ノ休日
TTITLE11=夏の冠
EXTD=YEAR: 1991
EXTT0=
EXTT1=
EXTT2=
EXTT3=
EXTT4=
EXTT5=
EXTT6=
EXTT7=
EXTT8=
EXTT9=
EXTT10=
EXTT11=
PLAYORDER=
